<?xml version="1.0" encoding="UTF-8"?>
<svg width="401px" height="500px" viewBox="0 0 401 500" version="1.1" xmlns="http://www.w3.org/2000/svg" xmlns:xlink="http://www.w3.org/1999/xlink">
    <!-- Generator: Sketch 43.2 (39069) - http://www.bohemiancoding.com/sketch -->
    <title>logo</title>
    <desc>Created with Sketch.</desc>
    <defs></defs>
    <g id="Page-1" stroke="none" stroke-width="1" fill="none" fill-rule="evenodd">
        <g id="Icon" transform="translate(-38.000000, 0.000000)" fill-rule="nonzero">
            <g id="logo" transform="translate(38.000000, 0.000000)">
                <path d="M150.813928,105.802908 C105.018247,137.363593 75,190.176228 75,250 C75,346.649831 153.350169,425 250,425 C285.68756,425 318.880097,414.317536 346.554431,395.975787 L400.340638,449.761994 C358.499405,481.301478 306.433339,500 250,500 C111.928813,500 0,388.071187 0,250 C0,111.928813 111.928813,0 250,0 C306.136613,0 357.951758,18.5024054 399.679787,49.7415688 L345.856995,103.564361 C318.323182,85.5040384 285.388266,75 250,75 C223.106913,75 197.63067,81.0662325 174.864978,91.9049923 L242.723634,209.439632 C259.575321,206.349834 277.279895,213.737277 286.33545,229.421959 C297.83545,249.340543 291.002976,274.839684 271.084392,286.339684 C251.165808,297.839684 225.666667,291.00721 214.166667,271.088626 C205.111111,255.403943 207.565685,236.377612 218.667372,223.328521 L150.813928,105.802908 L150.813928,105.802908 Z" id="Shape" fill="#D71328"></path>
                <path d="M150.813928,105.802908 C158.417715,100.562659 166.45646,95.9082925 174.864978,91.9049923 L158.112522,62.8888889 L134.056261,76.7777778 L150.813928,105.802908 L150.813928,105.802908 Z" id="Path" fill="#FFFFFF"></path>
            </g>
        </g>
    </g>
</svg>