<?xml version="1.0" standalone="no"?>
<!DOCTYPE svg PUBLIC "-//W3C//DTD SVG 20010904//EN"
 "http://www.w3.org/TR/2001/REC-SVG-20010904/DTD/svg10.dtd">
<svg version="1.0" xmlns="http://www.w3.org/2000/svg"
 width="700.000000pt" height="700.000000pt" viewBox="0 0 700.000000 700.000000"
 preserveAspectRatio="xMidYMid meet">
<metadata>
Created by potrace 1.11, written by Peter Selinger 2001-2013
</metadata>
<g transform="translate(0.000000,700.000000) scale(0.100000,-0.100000)"
fill="#000000" stroke="none">
<path d="M3818 6995 c-2 -1 -46 -6 -98 -10 -52 -3 -97 -8 -100 -10 -3 -1 -34
-6 -70 -9 -182 -19 -587 -121 -755 -191 -16 -6 -66 -27 -110 -45 -416 -172
-785 -421 -1116 -750 -163 -162 -249 -261 -366 -420 -274 -374 -496 -866 -587
-1300 -24 -111 -37 -182 -42 -220 -3 -25 -7 -52 -9 -60 -3 -8 -7 -40 -9 -70
-3 -30 -8 -91 -12 -135 -15 -155 -8 -532 11 -675 2 -14 6 -47 10 -75 3 -27 8
-61 10 -75 3 -14 7 -41 10 -60 37 -232 139 -568 250 -815 73 -163 235 -455
285 -512 5 -7 10 -15 10 -19 0 -7 187 -257 216 -289 11 -11 37 -41 58 -65 119
-137 353 -360 439 -419 12 -8 24 -18 27 -21 12 -14 171 -130 250 -181 285
-186 590 -327 915 -423 229 -67 428 -106 690 -133 149 -15 581 -8 725 12 95
13 208 31 305 50 145 28 394 103 565 170 116 45 370 168 465 225 108 65 345
224 345 233 0 9 -737 747 -747 747 -4 0 -52 -27 -107 -60 -276 -163 -619 -281
-916 -316 -25 -3 -67 -9 -93 -13 -48 -8 -460 -6 -507 3 -14 2 -45 7 -70 10
-25 3 -57 8 -72 11 -16 3 -38 7 -50 9 -112 20 -316 79 -433 126 -311 124 -594
309 -829 545 -176 176 -262 289 -416 545 -23 38 -105 212 -132 280 -69 171
-124 374 -144 530 -3 25 -9 61 -13 80 -21 102 -19 509 3 627 2 10 7 41 10 68
17 129 98 411 158 550 136 316 309 570 553 809 73 72 236 208 295 247 l24 16
-28 49 c-16 27 -39 68 -53 92 -13 23 -53 93 -89 154 -35 61 -63 113 -61 115 6
6 332 192 333 190 6 -6 204 -351 204 -354 0 -2 7 -14 15 -27 l16 -24 47 23
c143 69 441 159 595 180 41 6 102 15 139 21 57 10 420 12 493 3 206 -24 209
-25 355 -61 122 -29 286 -82 359 -114 133 -60 248 -118 321 -162 l85 -52 373
373 c204 204 371 376 369 382 -3 11 -265 189 -330 225 -496 270 -869 390
-1417 455 -49 6 -546 15 -552 10z"/>
<path d="M2889 5666 c-116 -62 -238 -140 -239 -150 0 -5 19 -41 41 -80 23 -39
49 -84 59 -101 9 -16 50 -86 89 -155 40 -69 78 -134 84 -145 6 -11 23 -40 38
-65 14 -25 106 -184 204 -355 98 -170 207 -358 242 -418 34 -59 63 -110 63
-114 0 -3 6 -14 14 -22 7 -9 30 -47 51 -86 21 -38 43 -77 48 -87 8 -12 4 -24
-17 -52 -70 -92 -115 -239 -110 -356 4 -101 11 -130 52 -225 107 -246 403
-392 662 -326 275 71 454 308 445 590 -4 112 -33 205 -95 297 -61 89 -134 154
-225 198 -93 45 -160 60 -274 60 l-94 1 -38 64 c-22 34 -39 64 -39 66 0 2 -58
103 -155 270 -32 55 -70 120 -83 145 -14 25 -63 110 -109 190 -46 80 -88 152
-93 160 -72 126 -360 621 -388 669 -20 35 -42 65 -47 67 -6 1 -44 -17 -86 -40z"/>
</g>
</svg>
