<?xml version="1.0" standalone="no"?>
<!DOCTYPE svg PUBLIC "-//W3C//DTD SVG 20010904//EN"
 "http://www.w3.org/TR/2001/REC-SVG-20010904/DTD/svg10.dtd">
<svg version="1.0" xmlns="http://www.w3.org/2000/svg"
 width="700.000000pt" height="700.000000pt" viewBox="0 0 700.000000 700.000000"
 preserveAspectRatio="xMidYMid meet">
<metadata>
Created by potrace 1.11, written by Peter Selinger 2001-2013
</metadata>
<g transform="translate(0.000000,700.000000) scale(0.100000,-0.100000)"
fill="#000000" stroke="none">
<path d="M3298 6996 c-1 -2 -41 -6 -88 -10 -178 -12 -388 -47 -581 -96 -640
-163 -1242 -522 -1689 -1007 -108 -117 -127 -139 -201 -234 -238 -304 -422
-646 -550 -1016 -33 -98 -81 -259 -95 -326 -20 -90 -53 -272 -59 -322 -4 -33
-9 -69 -11 -80 -18 -98 -25 -572 -11 -715 12 -109 27 -226 41 -295 2 -11 6
-36 10 -55 49 -272 156 -595 283 -857 313 -646 812 -1179 1433 -1529 256 -145
459 -229 785 -327 111 -33 354 -83 458 -93 34 -3 65 -8 68 -9 15 -10 227 -20
409 -20 217 0 365 9 487 29 21 4 52 8 68 10 55 7 195 36 278 57 45 11 89 22
97 24 75 18 298 95 395 136 17 7 32 13 35 14 48 16 236 108 345 168 98 55 367
230 384 251 8 10 -75 99 -361 384 -204 205 -375 372 -380 372 -5 0 -35 -17
-66 -37 -268 -173 -648 -303 -1012 -349 -82 -10 -434 -12 -505 -3 -38 5 -90
11 -115 14 -85 11 -241 46 -358 81 -913 277 -1576 1049 -1718 1999 -20 138
-27 525 -11 605 3 14 8 48 11 77 3 28 12 82 20 120 8 38 17 81 20 97 14 76 74
267 111 351 12 28 26 61 30 75 17 53 130 260 200 365 161 244 367 461 590 624
33 24 62 46 64 47 2 2 -8 22 -23 44 -14 22 -26 42 -26 45 0 3 -38 71 -85 150
-47 79 -88 150 -91 158 -3 10 5 20 23 29 15 8 91 51 168 96 76 45 140 80 141
79 1 -1 36 -63 79 -137 98 -170 127 -221 141 -245 12 -18 13 -18 55 -1 24 10
73 29 109 43 36 14 74 29 85 33 20 9 146 48 175 55 8 2 55 13 103 24 48 12
111 24 140 27 29 4 55 8 58 10 42 24 659 23 700 -2 4 -2 24 -6 45 -9 22 -3 50
-8 64 -11 14 -3 36 -8 50 -11 96 -18 329 -90 425 -132 96 -42 221 -106 308
-159 l89 -52 375 374 c206 206 372 379 369 384 -5 8 -150 110 -194 137 -390
236 -632 341 -1007 440 -139 37 -260 62 -340 71 -27 3 -53 8 -56 9 -3 2 -35 7
-71 10 -35 4 -78 8 -94 11 -34 5 -520 14 -526 10z"/>
<path d="M2380 5679 c-117 -63 -260 -153 -260 -163 0 -6 6 -22 14 -36 15 -28
213 -371 285 -495 26 -44 50 -87 54 -95 4 -8 16 -28 27 -45 11 -16 23 -36 27
-44 3 -8 35 -63 69 -122 35 -60 74 -128 87 -151 24 -43 266 -461 305 -528 56
-95 74 -134 63 -138 -6 -2 -11 -10 -11 -18 0 -8 -4 -14 -8 -14 -17 0 -85 -154
-100 -225 -10 -49 -5 -207 7 -255 47 -171 177 -322 337 -388 157 -66 332 -63
479 10 70 35 150 94 185 139 14 17 31 37 38 45 7 8 31 51 52 96 56 120 70 252
39 382 -13 55 -57 159 -71 164 -4 2 -8 8 -8 14 0 19 -74 100 -130 141 -126 95
-219 123 -386 120 l-81 -2 -16 32 c-9 18 -28 52 -43 77 -90 154 -161 277 -167
290 -4 8 -16 29 -26 45 -11 17 -28 46 -39 65 -28 51 -50 88 -146 253 -47 82
-86 153 -86 158 0 5 -4 9 -10 9 -5 0 -10 4 -10 9 0 5 -45 87 -100 181 -55 95
-100 174 -100 175 0 1 -25 44 -55 94 -30 51 -55 94 -55 96 0 3 -18 34 -40 70
-22 36 -40 70 -40 75 0 16 -22 11 -80 -21z"/>
</g>
</svg>
